<?xml version="1.0" encoding="UTF-8" standalone="no"?>
<!-- Created with Inkscape (http://www.inkscape.org/) -->

<svg
   width="255"
   height="255"
   viewBox="0 0 67.468749 67.468752"
   version="1.1"
   id="svg5"
   inkscape:version="1.1 (c68e22c387, 2021-05-23)"
   sodipodi:docname="dead-pixels.svg"
   inkscape:export-filename="D:\Projects\dead-pixels\icons\dead-pixels.png"
   inkscape:export-xdpi="96"
   inkscape:export-ydpi="96"
   xmlns:inkscape="http://www.inkscape.org/namespaces/inkscape"
   xmlns:sodipodi="http://sodipodi.sourceforge.net/DTD/sodipodi-0.dtd"
   xmlns="http://www.w3.org/2000/svg"
   xmlns:svg="http://www.w3.org/2000/svg">
  <sodipodi:namedview
     id="namedview7"
     pagecolor="#505050"
     bordercolor="#eeeeee"
     borderopacity="1"
     inkscape:pageshadow="0"
     inkscape:pageopacity="0"
     inkscape:pagecheckerboard="0"
     inkscape:document-units="mm"
     showgrid="false"
     units="px"
     inkscape:zoom="4.3994184"
     inkscape:cx="156.95256"
     inkscape:cy="110.5828"
     inkscape:window-width="2560"
     inkscape:window-height="1377"
     inkscape:window-x="-8"
     inkscape:window-y="-8"
     inkscape:window-maximized="1"
     inkscape:current-layer="layer1"
     showguides="true"
     inkscape:guide-bbox="true"
     inkscape:snap-center="true"
     width="255px">
    <inkscape:grid
       type="xygrid"
       id="grid13" />
  </sodipodi:namedview>
  <defs
     id="defs2" />
  <g
     inkscape:label="Layer 1"
     inkscape:groupmode="layer"
     id="layer1">
    <g
       id="g860"
       transform="translate(-0.1322915,0.32837397)">
      <path
         id="rect39"
         style="fill:#1a1a1a;fill-rule:evenodd;stroke-width:0.705555"
         d="M 12.700001,15.610416 H 55.033333 V 42.06875 H 12.700001 Z" />
      <path
         id="rect1520"
         style="fill:#442178;fill-opacity:1;fill-rule:evenodd;stroke-width:0.705554"
         d="M 12.7,15.610416 V 42.068749 H 55.033333 V 15.610416 Z m 0.79375,0.79375 H 54.239583 V 41.274999 H 13.49375 Z" />
      <path
         id="rect1250"
         style="fill:#442178;fill-opacity:1;stroke-width:0.386448"
         d="m 12.700001,39.422916 h 42.333332 v 2.645833 H 12.700001 Z" />
      <g
         id="g7914"
         transform="matrix(0.8,0,0,1,6.7733333,1.8520832)"
         style="fill:#442178;fill-opacity:1">
        <path
           style="fill:#442178;fill-opacity:1;stroke:none;stroke-width:0.264583px;stroke-linecap:butt;stroke-linejoin:miter;stroke-opacity:1"
           d="m 33.866667,46.302083 -18.520833,2.645833 -1.322917,1.322917 19.84375,-1.322917 v -2.645833"
           id="path5947" />
        <path
           style="fill:#442178;fill-opacity:1;stroke:none;stroke-width:0.264583px;stroke-linecap:butt;stroke-linejoin:miter;stroke-opacity:1"
           d="m 33.866667,46.302084 18.520833,2.645833 1.322917,1.322917 -19.84375,-1.322917 v -2.645833"
           id="path7896" />
      </g>
      <rect
         style="fill:#442178;fill-opacity:1;stroke:none;stroke-width:0.129727"
         id="rect7983"
         width="3.96875"
         height="6.6145835"
         x="31.882292"
         y="42.06876" />
      <g
         id="g4632"
         transform="rotate(-45,54.832714,102.14542)"
         style="fill:#ffcc00;fill-opacity:1">
        <path
           id="path1767"
           style="fill:#ffcc00;fill-opacity:1;stroke-width:0.883812"
           d="m 345,75 a 45,45 0 0 0 -45,45 45,45 0 0 0 45,45 45,45 0 0 0 45,-45 45,45 0 0 0 -45,-45 z m 0,7 a 38.000001,38.000001 0 0 1 38,38 38.000001,38.000001 0 0 1 -38,38 38.000001,38.000001 0 0 1 -38,-38 38.000001,38.000001 0 0 1 38,-38 z"
           transform="scale(0.26458333)" />
        <rect
           style="fill:#ffcc00;fill-opacity:1;stroke:none;stroke-width:0.121942"
           id="rect2114"
           width="7.9375"
           height="1.3229166"
           x="87.3125"
           y="44.317707"
           ry="0.66145831" />
        <path
           id="rect4265"
           style="fill:#ffcc00;fill-opacity:1;stroke-width:0.540078"
           d="m 89.296874,46.302081 v 8.069792 c 0,1.099343 0.885031,1.984375 1.984375,1.984375 1.099344,0 1.984375,-0.885032 1.984375,-1.984375 v -8.069792 z" />
      </g>
    </g>
  </g>
</svg>
